<svg width="24" height="24" viewBox="0 0 24 24" fill="none" xmlns="http://www.w3.org/2000/svg">
<path fill-rule="evenodd" clip-rule="evenodd" d="M13.018 18.632C14.672 17.277 17.761 14.276 17.761 10.761C17.761 7.57929 15.1817 5 12 5C8.81829 5 6.239 7.57929 6.239 10.761C6.239 14.276 9.328 17.277 10.982 18.632C11.5718 19.1231 12.4282 19.1231 13.018 18.632ZM12 12.041C13.0604 12.041 13.92 11.1814 13.92 10.121C13.92 9.06061 13.0604 8.201 12 8.201C10.9396 8.201 10.08 9.06061 10.08 10.121C10.08 11.1814 10.9396 12.041 12 12.041Z" fill="#42526E"/>
</svg>
