<svg width="305" height="305" viewBox="0 0 305 305" fill="none" xmlns="http://www.w3.org/2000/svg">
<circle cx="153.5" cy="166.5" r="132.5" fill="#FFEBE5"/>
<path d="M138.963 91.6255C128.804 91.6255 120.54 99.8895 120.54 110.048V116.598L132.822 122.739H138.963H145.104L157.386 116.598V110.048C157.386 99.8895 149.122 91.6255 138.963 91.6255Z" fill="#FF6A4D"/>
<path d="M157.386 116.598V110.048C157.386 99.8895 149.122 91.6255 138.963 91.6255V122.739H145.104L157.386 116.598Z" fill="#E64D2E"/>
<path d="M46.4403 276.671C49.286 290.685 62.2904 301.235 77.1448 301.235C91.9992 301.235 105.413 290.685 108.259 276.671L94.9173 270.53H54.9655L46.4403 276.671Z" fill="#474F54"/>
<path d="M77.1448 288.953C66.9861 288.953 58.7221 280.689 58.7221 270.53C58.7221 260.371 66.9861 252.107 77.1448 252.107C87.3035 252.107 95.9768 260.371 95.9768 270.53C95.9768 280.689 87.3035 288.953 77.1448 288.953Z" fill="#F2F9FF"/>
<path d="M108.259 166.135H71.0039L58.7221 178.417V215.262L71.0039 221.403H108.259L126.681 215.262V182.101L120.54 178.417L108.259 166.135Z" fill="#FF9100"/>
<path d="M58.7221 153.853V178.417H120.54L126.681 175.238L120.54 172.276V153.853H58.7221Z" fill="#FABE2C"/>
<path d="M145.104 276.671H46.4403V270.53C46.4403 246.789 66.0953 227.544 89.836 227.544L100.071 221.403H157.386V266.436L145.104 276.671Z" fill="#FF6A4D"/>
<path d="M46.4403 215.262H132.822V227.544H46.4403V215.262Z" fill="#32393F"/>
<path d="M175.808 246.335V269.424L169.668 276.671H145.104V227.544H132.822C126.067 227.544 120.54 222.017 120.54 215.262V184.558H157.386V202.98C164.141 202.98 169.668 208.507 169.668 215.262V239.826L175.808 246.335Z" fill="#575F64"/>
<path d="M175.808 246.335V269.424L169.668 276.671H145.104V227.544H138.963V184.558H157.386V202.98C164.141 202.98 169.668 208.507 169.668 215.262V239.826L175.808 246.335Z" fill="#474F54"/>
<path d="M157.386 178.417V172.276C157.386 162.117 149.122 153.853 138.963 153.853C128.804 153.853 120.54 162.117 120.54 172.276V184.558C120.54 194.732 128.788 202.98 138.963 202.98H188.5C198.674 202.98 206.922 194.732 206.922 184.558V178.417H157.386Z" fill="#FF6A4D"/>
<path d="M206.922 184.558V178.417H157.386V172.276C157.386 162.117 149.122 153.853 138.963 153.853V202.98H188.5C198.674 202.98 206.922 194.732 206.922 184.558Z" fill="#E64D2E"/>
<path d="M145.104 122.739H138.963H132.822L120.54 128.88V135.021C120.54 145.18 128.804 153.853 138.963 153.853C149.122 153.853 157.386 145.18 157.386 135.021V128.88L145.104 122.739Z" fill="#FFE1BA"/>
<path d="M157.386 135.021V128.88L145.104 122.739H138.963V153.853C149.122 153.853 157.386 145.18 157.386 135.021Z" fill="#FFBFAB"/>
<path d="M138.963 116.598H120.54V128.88H138.963H169.668V116.598H138.963Z" fill="#474F54"/>
<path d="M138.963 116.598H169.668V128.88H138.963V116.598Z" fill="#32393F"/>
<path d="M223.846 216.635C223.168 211.856 221.825 202.44 219.144 183.688L194.64 172.276V221.403C194.64 231.09 186.295 239.826 175.808 239.826H169.668V276.671H181.949H243.768L256.049 270.53V258.248C256.049 238.602 242.496 221.475 223.846 216.635Z" fill="#E64D2E"/>
<path d="M231.486 190.699H213.063C202.904 190.699 194.64 182.435 194.64 172.276C194.64 162.117 202.904 153.853 213.063 153.853H231.486V190.699Z" fill="#FF6A4D"/>
<path d="M227.19 240.012L225.405 246.836L215.026 241.738C203.182 246 194.64 257.237 194.64 270.53C194.64 287.46 208.415 301.235 225.345 301.235C242.275 301.235 256.049 287.46 256.049 270.53C256.049 254.233 243.246 240.988 227.19 240.012Z" fill="#32393F"/>
<path d="M225.345 252.107C215.186 252.107 206.922 260.371 206.922 270.53C206.922 280.689 215.186 288.953 225.345 288.953C235.504 288.953 243.768 280.689 243.768 270.53C243.768 260.371 235.504 252.107 225.345 252.107Z" fill="#DFE7F4"/>
<path d="M231.426 269.661L227.191 240.012C226.567 239.975 225.977 239.826 225.345 239.826C221.709 239.826 218.266 240.572 215.027 241.738L219.264 271.4L231.426 269.661Z" fill="#C7CFE1"/>
</svg>
