<svg width="305" height="273" viewBox="0 0 305 273" fill="none" xmlns="http://www.w3.org/2000/svg">
<circle cx="153.5" cy="138.5" r="132.5" fill="#FFEBE5"/>
<path d="M67.0625 27.4506H36.22V48.0315H67.0625V27.4506Z" fill="#48C1E1"/>
<path d="M73.424 25.1851C73.424 26.8728 72.0437 28.2536 70.3561 28.2536H32.9263C31.2386 28.2536 29.8584 26.8728 29.8584 25.1851V3.06847C29.8584 1.38084 31.2386 0 32.9263 0H70.3555C72.0431 0 73.4234 1.38084 73.4234 3.06847L73.424 25.1851Z" fill="#046699"/>
<g opacity="0.1">
<path d="M42.6559 25.1851V3.06847C42.6559 1.38084 44.0361 0 45.7244 0H32.9263C31.2386 0 29.8584 1.38084 29.8584 3.06847V25.1851C29.8584 26.8728 31.2386 28.2536 32.9263 28.2536H45.7244C44.0367 28.2536 42.6559 26.8728 42.6559 25.1851Z" fill="black"/>
</g>
<path d="M26.6589 194.284C26.8168 194.219 26.9395 194.09 26.9949 193.928C27.0509 193.767 27.0342 193.589 26.9508 193.441C26.6953 192.989 26.566 192.546 26.566 192.123C26.566 188.839 33.8508 185.324 44.6968 185.324C48.187 185.324 51.5873 185.712 54.5301 186.446C54.5777 186.458 54.626 186.464 54.6742 186.464C54.8303 186.464 54.9822 186.403 55.0954 186.289C55.2437 186.141 55.3033 185.927 55.2521 185.724C53.3595 178.17 52.2759 170.406 52.0216 162.472C52.018 162.38 52.012 162.287 52.0091 162.194C51.9751 161.062 51.9572 159.926 51.9572 158.787C51.9572 157.413 53.0718 156.296 54.4425 156.296H59.8247C59.9939 156.296 60.1559 156.224 60.2685 156.097C60.3811 155.971 60.4353 155.803 60.4168 155.634C60.3287 154.845 60.2876 154.185 60.2876 153.558C60.2876 145.164 65.6548 137.834 73.6438 135.317C73.8082 135.265 73.9423 135.144 74.0108 134.986C74.0799 134.827 74.0763 134.647 74.0012 134.491C73.2757 132.978 72.7669 131.395 72.4881 129.789C71.0966 121.759 75.2981 113.763 82.7045 110.346C82.9844 110.216 83.1197 109.895 83.016 109.604C82.6681 108.631 82.4048 107.631 82.2321 106.632C81.1026 100.116 83.651 93.797 88.3714 89.7957V64.2132C88.3714 54.7951 80.6838 47.0897 71.2866 47.0897H31.9946C22.5986 47.0897 14.9105 54.7951 14.9105 64.2132V201.39C18.334 198.504 22.2805 196.088 26.6589 194.284Z" fill="#A2DFF9"/>
<path d="M73.6444 135.316C73.8088 135.264 73.9429 135.143 74.0114 134.985C74.0805 134.826 74.0769 134.646 74.0018 134.49C73.2763 132.976 72.7675 131.394 72.4887 129.788C71.0972 121.758 75.2987 113.762 82.705 110.344C82.985 110.215 83.1203 109.894 83.0166 109.603C82.6687 108.629 82.4054 107.63 82.2327 106.631C81.1032 100.115 83.6516 93.7959 88.372 89.7945V78.276H14.9105V141.66H64.4247C66.7354 138.747 69.8956 136.497 73.6444 135.316Z" fill="#046699"/>
<path opacity="0.1" d="M33.3594 186.857V64.2126C33.3594 54.7946 41.0469 47.0891 50.4436 47.0891H31.9946C22.5986 47.0891 14.9105 54.7946 14.9105 64.2126V201.39C18.334 198.504 22.2805 196.089 26.6589 194.284C26.8168 194.219 26.9395 194.09 26.9949 193.928C27.0509 193.767 27.0342 193.589 26.9508 193.441C26.6953 192.989 26.566 192.546 26.566 192.123C26.5666 190.193 29.0858 188.186 33.3594 186.857Z" fill="black"/>
<path d="M144.482 95.7944C144.654 96.7881 144.743 97.8186 144.745 98.8581C144.745 99.1667 144.98 99.4234 145.288 99.4508C152.913 100.121 159.289 105.553 161.155 112.969C161.206 113.173 161.362 113.336 161.564 113.395C161.62 113.412 161.676 113.419 161.733 113.419C161.882 113.419 162.027 113.363 162.139 113.259C165.246 110.361 169.113 108.619 173.322 108.223C173.62 108.195 173.852 107.949 173.861 107.649C174.132 99.2954 177.528 91.4398 183.426 85.5299C183.549 85.4065 183.678 85.2916 183.803 85.1701C182.498 76.8528 178.666 68.8603 172.285 62.4648C171.029 61.2079 168.995 61.2073 167.738 62.4648L141.589 88.674C143.016 90.7554 144.026 93.1644 144.482 95.7944Z" fill="#EF5050"/>
<path d="M161.154 112.969C161.206 113.173 161.362 113.336 161.564 113.395C161.62 113.412 161.676 113.42 161.732 113.42C161.881 113.42 162.026 113.364 162.138 113.259C163.656 111.843 165.358 110.708 167.19 109.867C166.985 109.183 166.614 108.539 166.075 107.998L161.738 103.65C159.996 101.903 157.167 101.899 155.42 103.642C155.406 103.655 155.396 103.668 155.384 103.682C158.162 106.051 160.222 109.262 161.154 112.969Z" fill="#C0272D"/>
<path d="M170.446 99.7445H164.312C161.844 99.7445 159.844 97.7442 159.844 95.2768C159.844 92.8094 161.844 90.809 164.312 90.809H170.446C172.914 90.809 174.913 92.8094 174.913 95.2768C174.913 97.7448 172.914 99.7445 170.446 99.7445Z" fill="#C0272D"/>
<path d="M163.447 87.4016C162.305 87.4016 161.163 86.9667 160.291 86.0964C158.544 84.3534 158.542 81.5244 160.284 79.7778L164.623 75.4303C166.366 73.6843 169.195 73.6813 170.941 75.4244C172.688 77.1674 172.69 79.9964 170.948 81.743L166.609 86.0904C165.737 86.9637 164.592 87.4016 163.447 87.4016Z" fill="#C0272D"/>
<path d="M219.459 78.2891C219.407 78.1527 219.325 78.0312 219.224 77.9293C219.122 77.8274 219.001 77.7464 218.865 77.6928C206.492 72.7645 192.415 75.6758 183.003 85.1087C176.75 91.3755 173.374 99.7058 173.251 108.229C173.869 108.168 174.496 108.135 175.13 108.135C184.396 108.135 192.136 114.789 193.854 123.579C200.61 122.478 207.008 119.297 212.061 114.233C221.473 104.798 224.377 90.6905 219.459 78.2891Z" fill="#89C947"/>
<path d="M203.408 93.7827C201.661 92.0397 198.832 92.0427 197.09 93.7899L181.635 109.28C184.552 110.343 187.138 112.101 189.196 114.352L203.415 100.101C205.158 98.3542 205.155 95.5252 203.408 93.7827Z" fill="#D5E962"/>
<path d="M225.876 129.455C226.031 130.356 226.111 131.283 226.112 132.213C226.112 132.521 226.348 132.778 226.655 132.805C229.073 133.018 231.378 133.768 233.507 135.033C233.601 135.089 233.706 135.117 233.811 135.117C233.978 135.117 234.143 135.046 234.26 134.912C234.768 134.33 235.204 133.859 235.633 133.43C239.228 129.826 243.576 127.254 248.318 125.851C248.763 124.205 249.004 122.475 249.004 120.687C249.004 109.796 240.195 100.966 229.327 100.966C220.059 100.966 212.292 107.39 210.206 116.037C217.976 116.172 224.543 121.767 225.876 129.455Z" fill="#FFC502"/>
<path d="M91.0288 155.867C89.0338 152.331 87.7709 148.454 87.2884 144.464C81.4827 143.514 76.5538 139.796 74.0286 134.576C65.7579 136.91 59.693 144.521 59.693 153.556C59.693 154.339 59.7526 155.107 59.8414 155.866H91.0288V155.867Z" fill="#FFC502"/>
<path d="M241.197 146.172C241.772 149.492 241.315 152.835 239.877 155.867H265.161C271.131 147.482 272.575 136.539 268.692 126.745C268.643 126.621 268.569 126.509 268.476 126.415C268.382 126.322 268.27 126.247 268.146 126.198C256.782 121.672 243.855 124.345 235.211 133.009C234.58 133.642 233.989 134.303 233.422 134.98C237.435 137.336 240.364 141.366 241.197 146.172Z" fill="#89C947"/>
<path d="M239.877 155.867H245.402L254.214 147.035C255.957 145.288 255.953 142.459 254.206 140.717C252.46 138.974 249.631 138.977 247.888 140.724L241.346 147.282C241.653 150.232 241.154 153.173 239.877 155.867Z" fill="#D5E962"/>
<path d="M161.839 113.314C160.046 105.29 153.254 99.5521 145.34 98.8569C145.338 97.8127 145.254 96.7553 145.069 95.692C143.314 85.5674 133.672 78.7889 123.533 80.554C118.27 81.4701 113.913 84.5112 111.178 88.6353C107.217 85.6764 102.091 84.2866 96.828 85.2022C86.6873 86.9679 79.891 96.6076 81.6471 106.732C81.8306 107.795 82.1058 108.82 82.4566 109.803C74.9746 113.255 70.4312 121.399 71.9026 129.889C73.2929 137.915 79.6425 143.833 87.2664 145.063C86.5277 139.945 87.1204 134.662 89.0987 129.672C89.1178 129.623 89.1464 129.58 89.1839 129.542C89.2203 129.506 89.2643 129.477 89.3126 129.458C92.8618 128.044 96.5921 127.327 100.399 127.327C108.405 127.327 115.937 130.455 121.605 136.135C122.015 136.547 122.408 136.972 122.791 137.403C122.474 135.349 122.31 133.258 122.31 131.139C122.31 129.692 123.484 128.514 124.927 128.514H156.121C156.094 128.099 156.074 127.682 156.074 127.261C156.074 121.815 158.277 116.884 161.839 113.314Z" fill="#368C0E"/>
<path d="M96.5962 115.059C96.57 115.059 96.5444 115.058 96.5188 115.058C94.0514 115.017 92.0856 112.983 92.1273 110.515C92.2583 102.78 98.6026 96.5712 106.317 96.5712C106.393 96.5712 106.468 96.5718 106.544 96.573C110.43 96.6332 114.164 98.3137 116.785 101.184C118.449 103.007 118.321 105.833 116.499 107.496C114.678 109.161 111.852 109.033 110.187 107.211C109.205 106.135 107.862 105.531 106.404 105.508C103.5 105.461 101.11 107.777 101.061 110.667C101.021 113.108 99.0279 115.058 96.5962 115.059Z" fill="#89C947"/>
<path d="M121.261 122.746C120.745 122.746 120.22 122.656 119.708 122.466C117.395 121.608 116.215 119.038 117.072 116.724C119.565 110.005 127.063 106.557 133.79 109.038C137.135 110.274 139.854 112.864 141.248 116.147C142.213 118.417 141.155 121.041 138.884 122.006C136.614 122.972 133.99 121.913 133.025 119.642C132.582 118.601 131.755 117.812 130.695 117.421C128.583 116.642 126.232 117.723 125.45 119.831C124.783 121.632 123.075 122.746 121.261 122.746Z" fill="#89C947"/>
<path d="M194.172 128.466H194.009C194.007 128.507 194.007 128.55 194.006 128.591H199.99C201.766 128.591 203.204 130.034 203.204 131.812C203.204 140.79 200.307 149.09 195.426 155.867H240.519C241.867 152.9 242.381 149.52 241.783 146.07C240.455 138.402 234.118 132.863 226.707 132.212C226.706 131.269 226.628 130.313 226.462 129.353C224.877 120.208 216.168 114.086 207.011 115.68C202.257 116.509 198.321 119.254 195.852 122.981C195.05 122.382 194.194 121.862 193.297 121.414C193.889 123.258 194.213 125.222 194.213 127.261C194.212 127.654 194.199 128.052 194.172 128.466Z" fill="#368C0E"/>
<path d="M194.761 128.514C194.788 128.099 194.808 127.682 194.808 127.261C194.808 116.368 185.998 107.539 175.131 107.539C164.264 107.539 155.454 116.369 155.454 127.261C155.454 127.682 155.474 128.099 155.501 128.514H194.761Z" fill="#F7931E"/>
<path d="M122.027 135.715C113.383 127.053 100.455 124.379 89.0916 128.905C88.9671 128.955 88.8557 129.029 88.7616 129.122C88.6686 129.216 88.5942 129.327 88.5447 129.453C85.0682 138.223 85.8641 147.914 90.3533 155.867H130.909C126.801 150.395 124.016 143.873 123.038 136.779C122.711 136.418 122.374 136.063 122.027 135.715Z" fill="#89C947"/>
<path d="M109.134 155.867H121.756L109.348 143.431C107.605 141.685 104.778 141.68 103.03 143.424C101.283 145.166 101.28 147.995 103.023 149.742L109.134 155.867Z" fill="#D5E962"/>
<path d="M195.728 155.867C200.904 148.971 203.99 140.414 203.99 131.139C203.99 129.361 202.552 127.918 200.776 127.918H124.927C123.151 127.918 121.714 129.361 121.714 131.139C121.714 140.414 124.8 148.971 129.977 155.867H195.728Z" fill="#EF5050"/>
<path d="M167.482 155.867V152.776C167.482 150.309 165.482 148.309 163.014 148.309C160.546 148.309 158.546 150.309 158.546 152.776V155.867H167.482Z" fill="#C0272D"/>
<path d="M176.054 155.867H183.001C184.439 154.114 184.341 151.522 182.706 149.883L178.368 145.536C176.626 143.789 173.797 143.785 172.05 145.528C170.303 147.271 170.3 150.099 172.043 151.846L176.054 155.867Z" fill="#C0272D"/>
<path d="M149.271 155.867L153.281 151.847C155.024 150.101 155.021 147.272 153.274 145.529C151.528 143.786 148.699 143.789 146.956 145.536L142.618 149.883C140.983 151.522 140.884 154.113 142.321 155.866L149.271 155.867Z" fill="#C0272D"/>
<path d="M142.402 143.818H136.267C133.799 143.818 131.799 141.818 131.799 139.35C131.799 136.883 133.799 134.883 136.267 134.883H142.402C144.87 134.883 146.869 136.883 146.869 139.35C146.869 141.818 144.869 143.818 142.402 143.818Z" fill="#C0272D"/>
<path d="M189.437 143.818H183.302C180.835 143.818 178.834 141.818 178.834 139.35C178.834 136.883 180.835 134.883 183.302 134.883H189.437C191.905 134.883 193.905 136.883 193.905 139.35C193.905 141.818 191.905 143.818 189.437 143.818Z" fill="#C0272D"/>
<path d="M55.3885 186.673C55.4421 186.687 55.4963 186.695 55.5499 186.695C55.6786 186.695 55.8049 186.653 55.9097 186.574C56.0586 186.462 56.1456 186.286 56.1456 186.099V178.538C56.1456 176.403 57.8827 174.666 60.0177 174.666C62.1527 174.666 63.8898 176.403 63.8898 178.538V186.099C63.8898 186.286 63.9767 186.462 64.1257 186.574C64.2305 186.653 64.3568 186.695 64.4855 186.695C64.5397 186.695 64.5939 186.688 64.6469 186.673C67.7809 185.79 71.4784 185.323 75.338 185.323C86.1828 185.323 93.4682 188.838 93.4682 192.121C93.4682 192.546 93.3389 192.989 93.0834 193.441C92.9988 193.589 92.9827 193.767 93.0387 193.929C93.0947 194.09 93.2168 194.22 93.3747 194.285C107.26 200.009 117.099 212.15 119.054 225.969C119.079 226.149 119.185 226.306 119.34 226.399C119.433 226.454 119.538 226.482 119.643 226.482C119.715 226.482 119.786 226.468 119.855 226.443L213.902 190.715C215.721 190.024 217.631 189.674 219.578 189.674C222.306 189.674 225.004 190.377 227.381 191.707C231.515 194.021 234.38 198.012 235.241 202.655L236.06 207.078C236.096 207.27 236.221 207.432 236.399 207.512C236.477 207.548 236.561 207.566 236.645 207.566C236.751 207.566 236.856 207.538 236.949 207.483L268.569 188.817C271.286 179.135 272.663 169.096 272.663 158.785C272.663 157.08 271.283 155.698 269.582 155.698H54.4431C52.7418 155.698 51.3621 157.08 51.3621 158.785C51.3621 168.287 52.5368 177.558 54.8452 186.531C55.0257 186.579 55.2116 186.622 55.3885 186.673Z" fill="#E6E9ED"/>
<path opacity="0.1" d="M55.3885 186.673C55.4421 186.687 55.4963 186.695 55.5499 186.695C55.6786 186.695 55.8049 186.653 55.9097 186.574C56.0586 186.462 56.1456 186.286 56.1456 186.099V178.538C56.1456 176.403 57.8827 174.666 60.0177 174.666C62.1527 174.666 63.8898 176.403 63.8898 178.538V186.099C63.8898 186.286 63.9767 186.462 64.1257 186.574C64.2305 186.653 64.3568 186.695 64.4855 186.695C64.5397 186.695 64.5939 186.688 64.6469 186.673C67.3293 185.917 70.4264 185.469 73.6831 185.355C71.5719 176.748 70.5027 167.872 70.5027 158.785C70.5027 157.08 71.8817 155.698 73.5836 155.698H54.4431C52.7418 155.698 51.3621 157.08 51.3621 158.785C51.3621 168.287 52.5368 177.558 54.8452 186.531C55.0257 186.579 55.2116 186.622 55.3885 186.673Z" fill="black"/>
<path d="M60.0171 188.799C61.2407 188.112 62.7561 187.513 64.4861 187.025V178.538C64.4861 176.07 62.4863 174.07 60.0183 174.07C57.5503 174.07 55.5505 176.07 55.5505 178.538V187.025C57.2804 187.512 58.7941 188.112 60.0171 188.799Z" fill="#89C947"/>
<path d="M105.659 271.707L89.5229 271.713H89.5169C81.8353 271.713 75.2486 266.254 73.8559 258.732L73.6968 257.876C72.3035 250.353 76.5032 242.912 83.6832 240.184L119.731 226.49C117.875 211.643 107.412 199.208 93.0447 193.503C91.6507 195.846 86.8505 197.885 80.6004 198.619C80.3621 198.647 80.1632 198.815 80.097 199.046C80.0309 199.278 80.1096 199.525 80.2972 199.676C83.5366 202.267 85.5716 204.999 85.7413 206.984C85.8033 207.704 85.6264 208.288 85.1998 208.769C84.4403 209.627 82.9463 210.08 80.8804 210.08C76.8582 210.08 71.4188 208.398 66.3304 205.582C64.0893 204.34 62.0955 202.983 60.4019 201.548C60.2905 201.454 60.1535 201.407 60.0171 201.407C59.8801 201.407 59.7431 201.454 59.6323 201.548C57.9375 202.985 55.9437 204.342 53.705 205.581C48.6165 208.398 43.1772 210.08 39.155 210.08C37.0885 210.08 35.5951 209.627 34.8355 208.769C34.409 208.288 34.2315 207.704 34.2934 206.985C34.4638 204.999 36.4987 202.267 39.737 199.676C39.924 199.525 40.0033 199.278 39.9371 199.046C39.8716 198.815 39.6726 198.647 39.4338 198.619C33.1819 197.885 28.3811 195.845 26.9895 193.5C11.114 199.803 0 214.32 0 231.229C0 253.917 20.0043 272.309 44.6801 272.309H106.631C107.3 272.309 106.782 272.071 105.659 271.707Z" fill="#EF5050"/>
<path opacity="0.1" d="M19.3306 231.229C19.3306 217.753 26.3885 205.793 37.2898 198.302C32.0989 197.396 28.2167 195.569 26.9889 193.501C11.114 199.803 0 214.32 0 231.229C0 253.917 20.0043 272.309 44.6801 272.309H64.0113C39.3355 272.309 19.3306 253.917 19.3306 231.229Z" fill="black"/>
<path d="M94.0645 192.122C94.0645 188.038 85.6806 184.728 75.3386 184.728C69.0039 184.728 63.4054 185.971 60.0165 187.873C56.6299 185.971 51.0321 184.728 44.6962 184.728C34.3548 184.728 25.9697 188.038 25.9697 192.122C25.9697 195.473 31.6205 198.302 39.3629 199.211C34.6264 203.001 32.4575 206.985 34.3875 209.164C36.9449 212.051 45.7232 210.68 53.9915 206.103C56.313 204.817 58.3473 203.417 60.0153 202.003C61.685 203.418 63.7206 204.817 66.0402 206.103C74.3092 210.68 83.0869 212.05 85.6436 209.164C87.5743 206.985 85.4059 203.001 80.6677 199.211C88.4154 198.302 94.0645 195.473 94.0645 192.122Z" fill="#368C0E"/>
<path d="M304.931 218.577L303.731 212.105C303.319 209.871 301.164 208.395 298.921 208.806L252.616 217.312L282.182 197.548C283.583 196.612 284.232 194.958 283.944 193.387C283.862 192.951 283.708 192.523 283.48 192.116L280.134 186.19C279.59 185.225 278.676 184.518 277.602 184.233C276.528 183.947 275.385 184.103 274.428 184.668L235.967 207.372L243.243 246.653L287.357 254.58C288.456 254.778 289.59 254.523 290.497 253.875C291.404 253.226 292.011 252.238 292.174 251.137L293.172 244.446C293.241 243.986 293.231 243.531 293.15 243.097C292.86 241.524 291.658 240.211 290.014 239.834L255.313 231.875L301.618 223.368C303.863 222.956 305.344 220.812 304.931 218.577Z" fill="#89C947"/>
<path d="M73.2703 258.84C74.7161 266.646 81.5524 272.311 89.5229 272.308L228.898 272.255C233.802 272.253 238.454 270.08 241.591 266.325C244.729 262.57 246.029 257.621 245.139 252.816L235.828 202.546C234.938 197.742 231.95 193.58 227.674 191.187C223.397 188.793 218.275 188.417 213.691 190.157L83.4717 239.626C76.0242 242.457 71.6661 250.177 73.1112 257.984L73.2703 258.84Z" fill="#F7931E"/>
<g opacity="0.1">
<path d="M73.2703 258.84C73.4919 260.039 73.8547 261.179 74.3152 262.264C76.2363 258.851 79.322 256.09 83.2173 254.609L219.21 202.947C223.996 201.13 229.346 201.523 233.812 204.022C234.75 204.547 235.625 205.158 236.436 205.836L235.828 202.547C234.938 197.742 231.95 193.581 227.674 191.187C223.397 188.794 218.275 188.418 213.691 190.158L83.4717 239.627C76.0242 242.457 71.6661 250.178 73.1112 257.985L73.2703 258.84Z" fill="black"/>
</g>
<path d="M220.909 251.357C220.445 248.933 218.099 247.344 215.681 247.808C213.258 248.272 211.669 250.612 212.133 253.036L215.811 272.26L224.908 272.257L220.909 251.357Z" fill="#FFC502"/>
<path d="M196.691 256.655C196.234 254.229 193.898 252.635 191.473 253.092C189.048 253.549 187.453 255.885 187.91 258.309L190.542 272.27L199.634 272.266L196.691 256.655Z" fill="#FFC502"/>
<path d="M173.015 223.004C173.526 225.031 175.346 226.382 177.345 226.382C177.706 226.382 178.074 226.338 178.439 226.246C180.832 225.643 182.283 223.215 181.681 220.822L177.428 203.934L169.018 207.129L173.015 223.004Z" fill="#FFC502"/>
<path d="M149.768 252.761C149.33 250.333 147.008 248.719 144.578 249.157C142.15 249.595 140.536 251.919 140.974 254.347L144.209 272.288L153.288 272.284L149.768 252.761Z" fill="#FFC502"/>
<path d="M104.696 244.41C105.137 246.516 106.994 247.961 109.064 247.961C109.368 247.961 109.677 247.93 109.986 247.865C112.401 247.359 113.947 244.989 113.441 242.575L110.655 229.301L102.199 232.513L104.696 244.41Z" fill="#FFC502"/>
</svg>
