<svg width="305" height="305" viewBox="0 0 305 305" fill="none" xmlns="http://www.w3.org/2000/svg">
<rect width="305" height="305" fill="white"/>
<path d="M273.997 152.497C273.997 219.597 219.6 273.993 152.5 273.993C85.3979 273.993 31.0034 219.597 31.0034 152.497C31.0034 85.3964 85.3979 31 152.5 31C219.6 31 273.997 85.3964 273.997 152.497Z" fill="#FFEBE5"/>
<path d="M197.012 175.219H212.539L195.627 266.478C190.318 268.397 184.841 269.971 179.23 271.175L197.012 175.219ZM92.4608 175.219L109.373 266.476C114.682 268.393 120.159 269.969 125.77 271.173L107.988 175.219H92.4608ZM32.8523 35.5848H22.5896C20.9702 35.5848 19.749 37.0514 20.0442 38.6413L45.357 175.219L39.7708 205.362C43.222 212.036 47.2515 218.364 51.7904 224.281L60.8844 175.219L35.3957 37.6999C35.1692 36.4737 34.0997 35.5848 32.8523 35.5848ZM282.412 35.5848H272.148C270.9 35.5848 269.831 36.4737 269.604 37.6999L244.118 175.219L253.21 224.299C257.749 218.382 261.78 212.051 265.231 205.376L259.645 175.219L284.956 38.6413C285.251 37.0514 284.03 35.5848 282.412 35.5848ZM144.736 273.759C147.306 273.914 149.892 273.993 152.5 273.993C155.108 273.993 157.694 273.914 160.264 273.761V107.988H144.736V273.759Z" fill="#FF8F73"/>
<path d="M171.956 37.5924C177.988 37.5924 182.88 42.4829 182.88 48.5171C182.88 54.5513 177.988 59.4418 171.956 59.4418C165.922 59.4418 161.031 54.5513 161.031 48.5171C161.031 42.4829 165.922 37.5924 171.956 37.5924ZM122.795 56.7106C122.795 64.2533 128.908 70.3665 136.451 70.3665C143.991 70.3665 150.106 64.2533 150.106 56.7106C150.106 49.17 143.991 43.0547 136.451 43.0547C128.908 43.0547 122.795 49.17 122.795 56.7106Z" fill="#0AB59E"/>
<path d="M155.569 37.5924C164.618 37.5924 171.956 44.9282 171.956 53.9794C171.956 63.0307 164.618 70.3665 155.569 70.3665C146.517 70.3665 139.182 63.0307 139.182 53.9794C139.182 44.9282 146.517 37.5924 155.569 37.5924Z" fill="#0ED1B2"/>
<path d="M179.603 64.9041L174.141 86.7535H130.442L124.98 64.9041H179.603Z" fill="#C92E43"/>
<path d="M179.603 64.9041L174.141 86.7535H145.19L139.728 64.9041H179.603Z" fill="#E43950"/>
<path d="M174.687 53.9794C179.21 53.9794 182.88 57.6473 182.88 62.1729C182.88 66.6986 179.21 70.3665 174.687 70.3665C170.161 70.3665 166.493 66.6986 166.493 62.1729C166.493 57.6473 170.161 53.9794 174.687 53.9794ZM139.182 64.9041C139.182 67.9212 141.627 70.3665 144.644 70.3665C147.659 70.3665 150.106 67.9212 150.106 64.9041C150.106 61.887 147.659 59.4418 144.644 59.4418C141.627 59.4418 139.182 61.887 139.182 64.9041Z" fill="#0ED1B2"/>
<path d="M141.913 32.1301C146.436 32.1301 150.106 35.798 150.106 40.3236C150.106 44.8493 146.436 48.5172 141.913 48.5172C137.387 48.5172 133.719 44.8493 133.719 40.3236C133.719 35.798 137.387 32.1301 141.913 32.1301ZM117.332 62.173C117.332 66.6986 121 70.3665 125.526 70.3665C130.049 70.3665 133.719 66.6986 133.719 62.173C133.719 57.6474 130.049 53.9795 125.526 53.9795C121 53.9795 117.332 57.6474 117.332 62.173Z" fill="#0AB59E"/>
<path d="M150.106 31.266C153.121 31.266 155.569 33.7112 155.569 36.7283C155.569 39.7454 153.121 42.1907 150.106 42.1907C147.089 42.1907 144.644 39.7454 144.644 36.7283C144.644 33.7112 147.089 31.266 150.106 31.266ZM133.719 53.1154C133.719 56.1324 136.165 58.5777 139.182 58.5777C142.197 58.5777 144.644 56.1324 144.644 53.1154C144.644 50.0983 142.197 47.653 139.182 47.653C136.165 47.653 133.719 50.0983 133.719 53.1154Z" fill="#FDCDC7"/>
<path d="M166.493 37.5924C169.508 37.5924 171.956 40.0377 171.956 43.0547C171.956 46.0718 169.508 48.5171 166.493 48.5171C163.476 48.5171 161.031 46.0718 161.031 43.0547C161.031 40.0377 163.476 37.5924 166.493 37.5924Z" fill="#FC544D"/>
<path d="M100.945 179.613H35.3973C32.3802 179.613 29.935 177.168 29.935 174.151V167.963C29.935 165.245 31.9322 162.94 34.6249 162.556L84.7761 155.391C96.1936 153.761 106.408 162.618 106.408 174.151C106.408 177.168 103.96 179.613 100.945 179.613ZM194.898 179.613H260.446C263.461 179.613 265.908 177.168 265.908 174.151V167.963C265.908 165.245 263.909 162.94 261.218 162.556L211.065 155.391C199.65 153.761 189.435 162.618 189.435 174.151C189.435 177.168 191.881 179.613 194.898 179.613Z" fill="#E43950"/>
<path d="M106.184 171.255H51.7843C48.7672 171.255 46.322 168.81 46.322 165.793V160.885L84.776 155.391C95.2164 153.9 104.643 161.182 106.184 171.255ZM261.218 162.556L211.065 155.391C210.017 155.242 208.98 155.182 207.96 155.203C205.927 158.21 204.73 161.843 204.73 165.793C204.73 168.808 207.175 171.255 210.192 171.255H265.908V167.963C265.908 165.245 263.909 162.94 261.218 162.556Z" fill="#EA5569"/>
<path d="M217.816 89.4015L232.219 143.404C232.68 145.139 231.374 146.839 229.579 146.839H66.2063C64.4289 146.839 63.1252 145.171 63.5562 143.447L77.0264 89.5658C78.2426 84.703 82.6125 81.2912 87.6246 81.2912H207.261C212.211 81.2912 216.542 84.6198 217.816 89.4015Z" fill="#FFBDAD"/>
<path d="M141.578 122.863C141.147 127.171 137.509 130.444 133.18 130.418C133.107 130.416 133.032 130.416 132.958 130.416C128.737 130.39 125.193 127.235 124.681 123.044L122.575 105.823C122.372 104.169 120.872 102.959 119.172 103.164C117.729 103.337 116.643 104.568 116.498 106.013L114.761 123.385C114.561 125.395 112.327 126.49 110.603 125.438C98.2378 117.895 91.1837 102.867 95.0265 87.4982C95.0265 84.0714 97.8047 81.2912 101.231 81.2912H207.288C212.239 81.2912 216.57 84.6198 217.846 89.4015L228.792 130.452H215.616C211.377 130.452 207.803 127.29 207.286 123.08L204.51 100.36C204.308 98.7067 202.808 97.4969 201.107 97.7017C199.665 97.8745 198.576 99.1057 198.433 100.548L196.199 122.897C195.77 127.186 192.16 130.452 187.85 130.452H187.637C183.397 130.452 179.823 127.29 179.309 123.08L177.199 105.823C176.996 104.169 175.496 102.959 173.795 103.164C172.353 103.337 171.267 104.568 171.122 106.01L169.434 122.897C169.005 127.186 165.395 130.452 161.085 130.452H160.993C156.753 130.452 153.179 127.29 152.665 123.08L149.904 100.486C149.727 99.0481 148.619 97.8425 147.179 97.6953C145.474 97.5203 143.989 98.76 143.823 100.426L141.578 122.863Z" fill="#FFF5F5"/>
</svg>
