<svg width="25" height="24" viewBox="0 0 25 24" fill="none" xmlns="http://www.w3.org/2000/svg">
<path d="M22.3334 6V8.42C22.3334 10 21.3334 11 19.7534 11H16.3334V4.01C16.3334 2.9 17.2434 2 18.3534 2C19.4434 2.01 20.4434 2.45 21.1634 3.17C21.8834 3.9 22.3334 4.9 22.3334 6Z" stroke="#66707A" stroke-width="2" stroke-miterlimit="10" stroke-linecap="round" stroke-linejoin="round"/>
<path d="M2.33337 7V21C2.33337 21.83 3.27337 22.3 3.93337 21.8L5.64337 20.52C6.04337 20.22 6.60337 20.26 6.96337 20.62L8.62337 22.29C9.01337 22.68 9.65337 22.68 10.0434 22.29L11.7234 20.61C12.0734 20.26 12.6334 20.22 13.0234 20.52L14.7334 21.8C15.3934 22.29 16.3334 21.82 16.3334 21V4C16.3334 2.9 17.2334 2 18.3334 2H7.33337H6.33337C3.33337 2 2.33337 3.79 2.33337 6V7Z" stroke="#66707A" stroke-width="2" stroke-miterlimit="10" stroke-linecap="round" stroke-linejoin="round"/>
<path d="M9.33337 13.0098H12.3334" stroke="#66707A" stroke-width="2" stroke-linecap="round" stroke-linejoin="round"/>
<path d="M9.33337 9.00977H12.3334" stroke="#66707A" stroke-width="2" stroke-linecap="round" stroke-linejoin="round"/>
<path d="M6.32898 13H6.33796" stroke="#66707A" stroke-width="2" stroke-linecap="round" stroke-linejoin="round"/>
<path d="M6.32898 9H6.33796" stroke="#66707A" stroke-width="2" stroke-linecap="round" stroke-linejoin="round"/>
</svg>
